Coordinates
version=1
nRows=17
nColumns=24
inDegrees=yes

Units are S.I. units (second, meters, Newtons, ...)
Angles are in degrees.

endheader
time	pelvis_tilt	pelvis_list	pelvis_rotation	pelvis_tx	pelvis_ty	pelvis_tz	hip_flexion_r	hip_adduction_r	hip_rotation_r	knee_angle_r	ankle_angle_r	subtalar_angle_r	mtp_angle_r	hip_flexion_l	hip_adduction_l	hip_rotation_l	knee_angle_l	ankle_angle_l	subtalar_angle_l	mtp_angle_l	lumbar_extension	lumbar_bending	lumbar_rotation
      0.01000000	     37.09641149	      2.16587002	     -2.49584080	      0.68530191	      1.06881905	     -0.33004357	     41.20356781	     -6.25424778	      1.89315890	    -27.70927545	    -36.07555745	      0.00000000	      0.00000000	     29.75892611	    -15.08816282	     -6.47747702	    -69.20268478	    -14.31646247	      0.00000000	      0.00000000	      0.00000000	      0.00000000	      0.00000000
      0.02000000	     37.09881107	      2.16224120	     -2.49529571	      0.68528163	      1.06880030	     -0.33005629	     41.20645320	     -6.25283986	      1.89250059	    -27.72012202	    -36.07389545	      0.00000000	      0.00000000	     29.75854930	    -15.08806089	     -6.46969015	    -69.20427091	    -14.31285768	      0.00000000	      0.00000000	      0.00000000	      0.00000000	      0.00000000
      0.03000000	     37.09991149	      2.15892351	     -2.49551787	      0.68528222	      1.06880217	     -0.33006507	     41.20711665	     -6.25051647	      1.89153310	    -27.73096809	    -36.07299591	      0.00000000	      0.00000000	     29.75808554	    -15.08786518	     -6.46204020	    -69.20424140	    -14.30994821	      0.00000000	      0.00000000	      0.00000000	      0.00000000	      0.00000000
      0.04000000	     37.10011651	      2.15598228	     -2.49635476	      0.68529308	      1.06881446	     -0.33006669	     41.20609471	     -6.24713519	      1.89036724	    -27.74055249	    -36.07315761	      0.00000000	      0.00000000	     29.75677778	    -15.08788849	     -6.45520173	    -69.20228314	    -14.30811718	      0.00000000	      0.00000000	      0.00000000	      0.00000000	      0.00000000
      0.05000000	     37.09987245	      2.15370067	     -2.49781967	      0.68530293	      1.06883088	     -0.33005941	     41.20363040	     -6.24291609	      1.88925271	    -27.74771940	    -36.07468462	      0.00000000	      0.00000000	     29.75410185	    -15.08878588	     -6.44989996	    -69.19819397	    -14.30772774	      0.00000000	      0.00000000	      0.00000000	      0.00000000	      0.00000000
      0.06000000	     37.09979849	      2.15243214	     -2.50004533	      0.68530932	      1.06884890	     -0.33004670	     41.19974974	     -6.23837749	      1.88858712	    -27.75186067	    -36.07771881	      0.00000000	      0.00000000	     29.75006801	    -15.09124535	     -6.44664176	    -69.19209160	    -14.30893021	      0.00000000	      0.00000000	      0.00000000	      0.00000000	      0.00000000
      0.07000000	     37.10061094	      2.15228824	     -2.50304010	      0.68531669	      1.06886630	     -0.33003629	     41.19455618	     -6.23390085	      1.88880101	    -27.75303849	    -36.08211509	      0.00000000	      0.00000000	     29.74510790	    -15.09537710	     -6.44560869	    -69.18458869	    -14.31156730	      0.00000000	      0.00000000	      0.00000000	      0.00000000	      0.00000000
      0.08000000	     37.10266500	      2.15282419	     -2.50649169	      0.68532396	      1.06888048	     -0.33003097	     41.18834434	     -6.22941465	      1.89016294	    -27.75187165	    -36.08741225	      0.00000000	      0.00000000	     29.73971747	    -15.10031373	     -6.44670021	    -69.17683112	    -14.31521168	      0.00000000	      0.00000000	      0.00000000	      0.00000000	      0.00000000
      0.09000000	     37.10571721	      2.15321479	     -2.50986456	      0.68532457	      1.06889059	     -0.33002393	     41.18152458	     -6.22458852	      1.89266607	    -27.74924804	    -36.09292212	      0.00000000	      0.00000000	     29.73430731	    -15.10468415	     -6.44945546	    -69.17015863	    -14.31932864	      0.00000000	      0.00000000	      0.00000000	      0.00000000	      0.00000000
      0.10000000	     37.10927717	      2.15304305	     -2.51272475	      0.68531839	      1.06889743	     -0.33001045	     41.17454092	     -6.21930036	      1.89608614	    -27.74598986	    -36.09791040	      0.00000000	      0.00000000	     29.72937108	    -15.10776503	     -6.45287622	    -69.16547653	    -14.32348205	      0.00000000	      0.00000000	      0.00000000	      0.00000000	      0.00000000
      0.11000000	     37.11306719	      2.15263043	     -2.51491323	      0.68531258	      1.06890010	     -0.32999707	     41.16790100	     -6.21388627	      1.90014284	    -27.74262008	    -36.10179429	      0.00000000	      0.00000000	     29.72554487	    -15.11000745	     -6.45568379	    -69.16287223	    -14.32745135	      0.00000000	      0.00000000	      0.00000000	      0.00000000	      0.00000000
      0.12000000	     37.11699623	      2.15234917	     -2.51636904	      0.68531070	      1.06889577	     -0.32999155	     41.16216292	     -6.20894622	      1.90461950	    -27.73931932	    -36.10428409	      0.00000000	      0.00000000	     29.72333499	    -15.11229649	     -6.45711057	    -69.16178106	    -14.33120256	      0.00000000	      0.00000000	      0.00000000	      0.00000000	      0.00000000
      0.13000000	     37.12079966	      2.15207018	     -2.51692215	      0.68530943	      1.06888382	     -0.32999316	     41.15773504	     -6.20487405	      1.90935958	    -27.73603799	    -36.10543159	      0.00000000	      0.00000000	     29.72281771	    -15.11498631	     -6.45742664	    -69.16138708	    -14.33478478	      0.00000000	      0.00000000	      0.00000000	      0.00000000	      0.00000000
      0.14000000	     37.12398347	      2.15154063	     -2.51643325	      0.68530559	      1.06886831	     -0.32999687	     41.15470908	     -6.20164098	      1.91421532	    -27.73261662	    -36.10557134	      0.00000000	      0.00000000	     29.72363986	    -15.11782179	     -6.45758409	    -69.16086570	    -14.33823985	      0.00000000	      0.00000000	      0.00000000	      0.00000000	      0.00000000
      0.15000000	     37.12618491	      2.15081806	     -2.51507281	      0.68529979	      1.06885524	     -0.32999929	     41.15291918	     -6.19907217	      1.91905523	    -27.72885438	    -36.10517795	      0.00000000	      0.00000000	     29.72526161	    -15.12039727	     -6.45844335	    -69.15951042	    -14.34154329	      0.00000000	      0.00000000	      0.00000000	      0.00000000	      0.00000000
      0.16000000	     37.12744713	      2.15014779	     -2.51328340	      0.68529484	      1.06884666	     -0.33000232	     41.15206812	     -6.19718392	      1.92381267	    -27.72459881	    -36.10470946	      0.00000000	      0.00000000	     29.72715600	    -15.12241638	     -6.46030752	    -69.15690865	    -14.34457484	      0.00000000	      0.00000000	      0.00000000	      0.00000000	      0.00000000
      0.17000000	     37.12814601	      2.14968451	     -2.51144586	      0.68529182	      1.06883984	     -0.33001170	     41.15177528	     -6.19619750	      1.92849741	    -27.71985097	    -36.10449086	      0.00000000	      0.00000000	     29.72885276	    -15.12367043	     -6.46291159	    -69.15309871	    -14.34714633	      0.00000000	      0.00000000	      0.00000000	      0.00000000	      0.00000000
